<svg width="24" height="24" viewBox="0 0 24 24" xmlns="http://www.w3.org/2000/svg"><g transform="translate(2 2)">
<path d="M22 21.25H21V15C21 10.03 16.97 6 12 6C7.03 6 3 10.03 3 15V21.25H2C1.59 21.25 1.25 21.59 1.25 22C1.25 22.41 1.59 22.75 2 22.75H22C22.41 22.75 22.75 22.41 22.75 22C22.75 21.59 22.41 21.25 22 21.25Z"/>
<path d="M12 3.75C11.59 3.75 11.25 3.41 11.25 3V2C11.25 1.59 11.59 1.25 12 1.25C12.41 1.25 12.75 1.59 12.75 2V3C12.75 3.41 12.41 3.75 12 3.75Z"/>
<path d="M5 5.75043C4.81 5.75043 4.62 5.68043 4.47 5.53043L3.47 4.53043C3.18 4.24043 3.18 3.76043 3.47 3.47043C3.76 3.18043 4.24 3.18043 4.53 3.47043L5.53 4.47043C5.82 4.76043 5.82 5.24043 5.53 5.53043C5.38 5.68043 5.19 5.75043 5 5.75043Z"/>
<path d="M19 5.75043C18.81 5.75043 18.62 5.68043 18.47 5.53043C18.18 5.24043 18.18 4.76043 18.47 4.47043L19.47 3.47043C19.76 3.18043 20.24 3.18043 20.53 3.47043C20.82 3.76043 20.82 4.24043 20.53 4.53043L19.53 5.53043C19.38 5.68043 19.19 5.75043 19 5.75043Z"/>
</g>
</svg>
